<svg xmlns="http://www.w3.org/2000/svg" width="44" height="44" viewBox="0 0 44 44">
  <rect width="44" height="44" rx="12" fill="#5F96F9"/>
  <g transform="translate(8,7) scale(1.85)" fill="none" stroke="white" stroke-width="1.2" stroke-linecap="round" stroke-linejoin="round">
    <path d="M10.9615 14C10.3959 13.998 9.9389 13.538 9.941 12.972L9.956 8.875L12.005 8.882L11.99 12.98C11.988 13.545 11.527 14.002 10.9615 14Z"/>
    <path d="M12.034 1.029L12.005 8.882L8.932 8.871L8.95 4.091C8.956 2.394 10.337 1.023 12.034 1.029Z"/>
    <path d="M7.071 4.122L7.109 1.05"/>
    <path d="M4.903 13.999C4.337 13.992 3.884 13.528 3.891 12.962L3.941 8.865L5.989 8.89L5.939 12.987C5.932 13.553 5.468 14.006 4.903 13.999Z"/>
    <path d="M5.681 6.154L4.315 6.138C3.561 6.129 2.957 5.51 2.966 4.756L2.974 4.073L7.071 4.122L7.063 4.805C7.054 5.559 6.435 6.163 5.681 6.154Z"/>
    <path d="M2.974 4.073L3.011 1"/>
    <path d="M5.023 4.098L5.06 1.025"/>
    <path d="M4.965 8.877L4.998 6.146"/>
  </g>
</svg>
