<svg xmlns="http://www.w3.org/2000/svg" width="20" height="20" viewBox="0 0 20 20">
  <g transform="translate(3,3)" fill="none" stroke="#5F96F9" stroke-width="1.3" stroke-linecap="round" stroke-linejoin="round">
    <path d="M1.25 8.468V6.548C1.25 5.088 2.43 3.918 3.88 3.918H8.49C9.95 3.918 11.12 5.098 11.12 6.548V11.128C11.12 12.588 9.94 13.758 8.49 13.758H3.88C2.43 13.758 1.25 12.578 1.25 11.128"/>
    <path d="M3.44 1.968V1.408"/>
    <path d="M5.94 1.968V1.408"/>
    <path d="M8.44 1.968V1.408"/>
    <path d="M13.75 8.228C13.75 9.678 12.57 10.858 11.12 10.858V5.598C12.57 5.598 13.75 6.778 13.75 8.228Z"/>
    <path d="M1.25 7.498H10.94"/>
  </g>
</svg>
